<svg id="Darto_logo" xmlns="http://www.w3.org/2000/svg" xmlns:xlink="http://www.w3.org/1999/xlink" width="512" height="512" viewBox="0 0 512 512">
  <metadata><?xpacket begin="﻿" id="W5M0MpCehiHzreSzNTczkc9d"?>
<x:xmpmeta xmlns:x="adobe:ns:meta/" x:xmptk="Adobe XMP Core 5.6-c138 79.159824, 2016/09/14-01:09:01        ">
   <rdf:RDF xmlns:rdf="http://www.w3.org/1999/02/22-rdf-syntax-ns#">
      <rdf:Description rdf:about=""/>
   </rdf:RDF>
</x:xmpmeta>
                                                                                                    
                                                                                                    
                                                                                                    
                                                                                                    
                                                                                                    
                                                                                                    
                                                                                                    
                                                                                                    
                                                                                                    
                                                                                                    
                                                                                                    
                                                                                                    
                                                                                                    
                                                                                                    
                                                                                                    
                                                                                                    
                                                                                                    
                                                                                                    
                                                                                                    
                                                                                                    
                           
<?xpacket end="w"?></metadata>
<defs>
    <style>
      .cls-1, .cls-6 {
        fill: #344049;
      }

      .cls-2 {
        fill: #cc0202;
      }

      .cls-2, .cls-3, .cls-5, .cls-6, .cls-8, .cls-9 {
        fill-rule: evenodd;
      }

      .cls-3, .cls-4 {
        fill: #fff;
      }

      .cls-4 {
        font-size: 9.948px;
        font-family: TTFirs;
        font-weight: 800;
      }

      .cls-5 {
        fill: #c6c7c8;
      }

      .cls-7 {
        filter: url(#filter);
      }

      .cls-8 {
        fill: #b70000;
      }

      .cls-9 {
        fill: #8f9da8;
        opacity: 0.45;
      }
    </style>
    <filter id="filter" filterUnits="userSpaceOnUse">
      <feFlood result="flood" flood-color="#344049"/>
      <feComposite result="composite" operator="in" in2="SourceGraphic"/>
      <feBlend result="blend" in2="SourceGraphic"/>
    </filter>
  </defs>
  <rect id="background" class="cls-1" x="-1" y="-2" width="513" height="517"/>
  <path id="bottom_flight_copy_4" data-name="bottom_flight copy 4" class="cls-2" d="M28.259,254.941H174.385l-23.613,23.731-20.989,20.566a22.91,22.91,0,0,1-3.972,2.672,10.544,10.544,0,0,1-3.9,1.02l-57.448,4.746s-7.918-.237-13.577-4.57c-5.353-4.1-8.462-12.305-8.462-12.305s-3.875-10.739-7.859-20.463Zm0,0H174.385L150.772,231.21l-20.989-20.566a22.91,22.91,0,0,0-3.972-2.672,10.544,10.544,0,0,0-3.9-1.02l-57.448-4.746s-7.918.237-13.577,4.57c-5.353,4.1-8.462,12.3-8.462,12.3s-3.875,10.739-7.859,20.463Z"/>
  <path id="D__arrow" data-name="D _arrow" class="cls-3" d="M121.586,217.859h37.306s36.687-.191,36.687,37.268c0,37.079-36.811,36.9-36.811,36.9H121.586l21.247-21.19,15.935-.053L170.3,254.941l-11.527-15.466H143.152Z"/>
  <path id="A" class="cls-3" d="M208.778,217.859h43.5l15.43,74.164h-23.8l-10.039-52.548h-6.693l-9.668,52.548h-23.8Z"/>
  <path id="R" class="cls-3" d="M266.6,217.859h44.619s24.912,1.056,24.912,27.578c0,18.028-13.758,21.656-13.758,21.616l13.758,24.97-24.912-.373-10.04-20.5v-19.38h2.6s7.808-.186,7.808-6.336c0-6.09-7.808-5.962-7.808-5.962H291.137v52.548H266.6V217.859Z"/>
  <text id="TO" class="cls-4" transform="translate(329.903 291.957) scale(10.603 10.613)">TO</text>
  <g id="flight">
    <path id="bottom_flight" class="cls-5" d="M46.85,254.755h98.161l-16.732,16.77L113.406,286.06a16.255,16.255,0,0,1-2.815,1.888,7.488,7.488,0,0,1-2.762.721l-35.324,3.354s-5.611-.168-9.62-3.229c-3.793-2.9-6-8.7-6-8.7s-2.746-7.589-5.569-14.461Z"/>
    <path id="bottom_flight_copy" data-name="bottom_flight copy" class="cls-3" d="M46.85,254.755h98.161l-16.732-16.771-14.873-14.535a16.255,16.255,0,0,0-2.815-1.888,7.488,7.488,0,0,0-2.762-.721l-35.324-3.354s-5.611.168-9.62,3.23c-3.793,2.9-6,8.7-6,8.7S54.143,237,51.32,243.873Z"/>
  </g>
  <g id="dart_body-2" data-name="dart_body">
    <path id="barel" class="cls-6" d="M227.927,249.164s22.2-1.6,47.909-2.6c35.373-1.368,77.4-1.875,77.4-1.875v20.5s-41.973-.753-77.334-2.015c-25.737-.918-47.971-2.457-47.971-2.457V249.164Z"/>
    <path id="nail" class="cls-6" d="M371.823,252.891h43.751l56.269,1.864v0.372L415.7,257.363H371.823v-4.472Z"/>
    <path id="head_copy" data-name="head copy" class="cls-6" d="M370.336,252.891a32.2,32.2,0,0,0-6.543-5.853,25.478,25.478,0,0,0-7.215-2.719v21.243a34.371,34.371,0,0,0,7.215-2.718,20.672,20.672,0,0,0,6.543-5.853v-4.1Z"/>
    <g id="shaft" class="cls-7">
      <path class="cls-8" d="M226.455,248.9s-25.76,2.4-48.889,2.951c-18.845.445-43.38-.943-43.38-0.943l-2.843-.124-27.094,2.379V255.3H226.455V248.9Z"/>
      <path id="Rectangle_1_copy" data-name="Rectangle 1 copy" class="cls-8" d="M226.455,260.946s-25.76-2.4-48.889-2.951c-18.845-.446-43.38.943-43.38,0.943l-2.843.123-27.094-2.378v-2.131H226.455v6.394Z"/>
    </g>
  </g>
  <path id="trade_mark" data-name="trade mark" class="cls-9" d="M477.2,213.457a6.737,6.737,0,0,1-2.676,2.687,7.259,7.259,0,0,1-7.205,0,6.75,6.75,0,0,1-2.681-2.687,7.275,7.275,0,0,1,.014-7.245,6.692,6.692,0,0,1,2.71-2.683,7.221,7.221,0,0,1,7.118,0,6.668,6.668,0,0,1,2.705,2.683A7.3,7.3,0,0,1,477.2,213.457Zm-1.056-6.639a5.568,5.568,0,0,0-2.259-2.24,6,6,0,0,0-5.932,0,5.6,5.6,0,0,0-2.259,2.24,6.046,6.046,0,0,0-.015,6.037,5.7,5.7,0,0,0,2.24,2.241,6.021,6.021,0,0,0,6,0,5.659,5.659,0,0,0,2.234-2.241A6.068,6.068,0,0,0,476.141,206.818Zm-2.875,4.908a14.611,14.611,0,0,0,.613,2.228H472.8a9.92,9.92,0,0,1-.528-1.938c-0.241-1.12-.685-1.541-1.634-1.577h-0.985v3.515h-1.045V205.96a10.915,10.915,0,0,1,2.006-.18,3.336,3.336,0,0,1,2.354.674A2.024,2.024,0,0,1,473.6,208a2.138,2.138,0,0,1-1.525,2.058v0.036A2.069,2.069,0,0,1,473.266,211.726Zm-0.72-3.623c0-1.047-.757-1.5-1.862-1.5a4.315,4.315,0,0,0-1.033.1v2.95h1.07A1.594,1.594,0,0,0,472.546,208.1Z"/>
</svg>
